<?xml version="1.0" encoding="UTF-8" standalone="no"?>
<svg
   xmlns:dc="http://purl.org/dc/elements/1.1/"
   xmlns:cc="http://creativecommons.org/ns#"
   xmlns:rdf="http://www.w3.org/1999/02/22-rdf-syntax-ns#"
   xmlns:svg="http://www.w3.org/2000/svg"
   xmlns="http://www.w3.org/2000/svg"
   xmlns:sodipodi="http://sodipodi.sourceforge.net/DTD/sodipodi-0.dtd"
   xmlns:inkscape="http://www.inkscape.org/namespaces/inkscape"
   inkscape:version="1.0 (4035a4fb49, 2020-05-01)"
   sodipodi:docname="ICT.svg"
   viewBox="0 0 553.40342 392.07062"
   height="392.07062"
   width="553.40344"
   xml:space="preserve"
   id="svg833"
   version="1.1"><metadata
     id="metadata839"><rdf:RDF><cc:Work
         rdf:about=""><dc:format>image/svg+xml</dc:format><dc:type
           rdf:resource="http://purl.org/dc/dcmitype/StillImage" /><dc:title></dc:title></cc:Work></rdf:RDF></metadata><defs
     id="defs837" /><sodipodi:namedview
     fit-margin-bottom="0"
     fit-margin-right="0"
     fit-margin-left="0"
     fit-margin-top="0"
     inkscape:current-layer="g843"
     inkscape:window-maximized="1"
     inkscape:window-y="-6"
     inkscape:window-x="-6"
     inkscape:cy="398.9362"
     inkscape:cx="213.72615"
     inkscape:zoom="0.78030787"
     showgrid="false"
     id="namedview835"
     inkscape:window-height="1018"
     inkscape:window-width="1920"
     inkscape:pageshadow="2"
     inkscape:pageopacity="0"
     guidetolerance="10"
     gridtolerance="10"
     objecttolerance="10"
     borderopacity="1"
     bordercolor="#666666"
     pagecolor="#ffffff" /><g
     transform="matrix(1.3333333,0,0,1.3333333,-176.11402,-8.9009601e-6)"
     inkscape:label="INN_v3"
     inkscape:groupmode="layer"
     id="g841"><g
       id="g843"><text
         id="text847"
         style="font-variant:normal;font-weight:normal;font-size:30px;font-family:'Cambria Math';-inkscape-font-specification:CambriaMath;writing-mode:lr-tb;fill:#000000;fill-opacity:1;fill-rule:nonzero;stroke:none"
         transform="translate(177.95671,25.944083)"><tspan
           id="tspan845"
           sodipodi:role="line"
           y="0"
           x="0 26.549999">∈ℝ</tspan></text><text
         id="text851"
         style="font-variant:normal;font-weight:normal;font-size:20.25px;font-family:Verdana;-inkscape-font-specification:Verdana;writing-mode:lr-tb;fill:#000000;fill-opacity:1;fill-rule:nonzero;stroke:none"
         transform="translate(226.86473,16.944083)"><tspan
           id="tspan849"
           y="0"
           x="0">N</tspan></text><path
         id="path853"
         style="fill:#00305d;fill-opacity:0.388235;fill-rule:evenodd;stroke:none"
         d="m 158.555,42.301 c 0,-5.797 4.703,-10.5 10.5,-10.5 h 42 c 5.8,0 10.5,4.703 10.5,10.5 v 215.25 c 0,5.801 -4.7,10.5 -10.5,10.5 h -42 c -5.797,0 -10.5,-4.699 -10.5,-10.5 z" /><g
         id="g855"><path
           id="path857"
           style="fill:none;stroke:#000e23;stroke-width:1.25;stroke-linecap:butt;stroke-linejoin:miter;stroke-miterlimit:8;stroke-dasharray:none;stroke-opacity:1"
           d="m 158.555,42.301 c 0,-5.797 4.703,-10.5 10.5,-10.5 h 42 c 5.8,0 10.5,4.703 10.5,10.5 v 215.25 c 0,5.801 -4.7,10.5 -10.5,10.5 h -42 c -5.797,0 -10.5,-4.699 -10.5,-10.5 z" /></g><path
         id="path859"
         style="fill:#0069b4;fill-opacity:0.670588;fill-rule:evenodd;stroke:none"
         d="m 450.40722,41.176 c 0,-5.176 4.199,-9.375 9.375,-9.375 h 37.5 c 5.176,0 9.375,4.199 9.375,9.375 v 98.25 c 0,5.179 -4.199,9.375 -9.375,9.375 h -37.5 c -5.176,0 -9.375,-4.196 -9.375,-9.375 z" /><g
         transform="translate(-138.29979)"
         id="g861"><path
           id="path863"
           style="fill:none;stroke:#000e23;stroke-width:1.25;stroke-linecap:butt;stroke-linejoin:miter;stroke-miterlimit:8;stroke-dasharray:none;stroke-opacity:1"
           d="m 588.707,41.176 c 0,-5.176 4.199,-9.375 9.375,-9.375 h 37.5 c 5.176,0 9.375,4.199 9.375,9.375 v 98.25 c 0,5.179 -4.199,9.375 -9.375,9.375 h -37.5 c -5.176,0 -9.375,-4.196 -9.375,-9.375 z" /></g><path
         id="path865"
         style="fill:#008244;fill-opacity:0.670588;fill-rule:evenodd;stroke:none"
         d="m 451.15722,161.926 c 0,-5.176 4.199,-9.375 9.375,-9.375 h 37.5 c 5.176,0 9.375,4.199 9.375,9.375 v 96 c 0,5.179 -4.199,9.375 -9.375,9.375 h -37.5 c -5.176,0 -9.375,-4.196 -9.375,-9.375 z" /><g
         transform="translate(-138.29979)"
         id="g867"><path
           id="path869"
           style="fill:none;stroke:#000e23;stroke-width:1.25;stroke-linecap:butt;stroke-linejoin:miter;stroke-miterlimit:8;stroke-dasharray:none;stroke-opacity:1"
           d="m 589.457,161.926 c 0,-5.176 4.199,-9.375 9.375,-9.375 h 37.5 c 5.176,0 9.375,4.199 9.375,9.375 v 96 c 0,5.179 -4.199,9.375 -9.375,9.375 h -37.5 c -5.176,0 -9.375,-4.196 -9.375,-9.375 z" /></g><text
         y="166.59161"
         x="38.067352"
         id="text877"
         style="font-variant:normal;font-weight:bold;font-size:39.75px;font-family:Verdana;-inkscape-font-specification:Verdana-Bold;writing-mode:lr-tb;fill:#000000;fill-opacity:1;fill-rule:nonzero;stroke:none"><tspan
           id="tspan873"
           y="102.09161"
           x="466.12775">y</tspan></text><g
         transform="matrix(0.61454534,0,0,0.61454534,85.418298,51.648747)"
         id="g879"><path
           id="path881"
           style="fill:#00305d;fill-opacity:1;fill-rule:evenodd;stroke:#000e23;stroke-width:1.41054;stroke-linecap:butt;stroke-linejoin:miter;stroke-miterlimit:8;stroke-dasharray:none;stroke-opacity:1"
           d="M 223.027,148.809 325.566,90.324 v 29.242 H 486.945 V 90.324 l 102.539,58.485 -102.539,58.48 V 178.047 H 325.566 v 29.242 z" /></g><text
         y="151.96957"
         x="308.32626"
         id="text885"
         style="font-variant:normal;font-weight:bold;font-size:25.8285px;font-family:Verdana;-inkscape-font-specification:Verdana-Bold;writing-mode:lr-tb;fill:#ffffff;fill-opacity:1;fill-rule:nonzero;stroke:none;stroke-width:0.649766"><tspan
           style="stroke-width:0.649766"
           id="tspan883"
           sodipodi:role="line"
           y="151.96957"
           x="308.32626 322.40262 344.2532">INN</tspan></text><text
         y="146.62082"
         x="-204.92941"
         transform="rotate(-90)"
         id="text895"
         style="font-variant:normal;font-weight:normal;font-size:19.1313px;font-family:Verdana;-inkscape-font-specification:Verdana;writing-mode:lr-tb;fill:#000000;fill-opacity:1;fill-rule:nonzero;stroke:none;stroke-width:0.772945"><tspan
           style="stroke-width:0.772945"
           x="-204.92941 -191.57646 -179.98349 -167.89319 -155.97499 -143.88464 -133.93706 -126.39962 -121.15796 -109.85194 -104.61024 -97.16864"
           y="146.62082"
           id="tspan887"
           sodipodi:role="line">Conductivity</tspan><tspan
           style="stroke-width:0.772945"
           y="170.53494"
           x="-204.92941"
           id="tspan889"
           sodipodi:role="line" /><tspan
           style="stroke-width:0.772945"
           y="194.44907"
           x="-204.92941"
           id="tspan891"
           sodipodi:role="line" /><tspan
           style="stroke-width:0.772945"
           y="218.36319"
           x="-204.92941"
           id="tspan893"
           sodipodi:role="line" /></text><text
         y="23.722786"
         x="441.13791"
         id="text899"
         style="font-variant:normal;font-weight:bold;font-size:30px;font-family:Verdana;-inkscape-font-specification:Verdana-Bold;writing-mode:lr-tb;fill:#000000;fill-opacity:1;fill-rule:nonzero;stroke:none"><tspan
           id="tspan897"
           y="23.722786"
           x="441.13791">y</tspan></text><text
         y="23.722786"
         x="464.20804"
         id="text903"
         style="font-variant:normal;font-weight:normal;font-size:30px;font-family:'Cambria Math';-inkscape-font-specification:CambriaMath;writing-mode:lr-tb;fill:#000000;fill-opacity:1;fill-rule:nonzero;stroke:none"><tspan
           id="tspan901"
           sodipodi:role="line"
           y="23.722786"
           x="464.20804 490.7879">∈ℝ</tspan></text><text
         y="14.722785"
         x="513.16797"
         id="text907"
         style="font-variant:normal;font-weight:normal;font-size:20.25px;font-family:Verdana;-inkscape-font-specification:Verdana;writing-mode:lr-tb;fill:#000000;fill-opacity:1;fill-rule:nonzero;stroke:none"><tspan
           id="tspan905"
           y="14.722785"
           x="513.16797">M</tspan></text><text
         y="294.05298"
         x="436.77405"
         id="text911"
         style="font-variant:normal;font-weight:bold;font-size:30px;font-family:Verdana;-inkscape-font-specification:Verdana-Bold;writing-mode:lr-tb;fill:#000000;fill-opacity:1;fill-rule:nonzero;stroke:none"><tspan
           id="tspan909"
           y="294.05298"
           x="436.77405">z</tspan></text><text
         y="294.05298"
         x="458.76413"
         id="text915"
         style="font-variant:normal;font-weight:normal;font-size:30px;font-family:'Cambria Math';-inkscape-font-specification:CambriaMath;writing-mode:lr-tb;fill:#000000;fill-opacity:1;fill-rule:nonzero;stroke:none"><tspan
           id="tspan913"
           sodipodi:role="line"
           y="294.05298"
           x="458.76413 485.34396">∈ℝ</tspan></text><text
         y="285.05298"
         x="507.70905"
         id="text919"
         style="font-variant:normal;font-weight:normal;font-size:20.25px;font-family:Verdana;-inkscape-font-specification:Verdana;writing-mode:lr-tb;fill:#000000;fill-opacity:1;fill-rule:nonzero;stroke:none"><tspan
           id="tspan917"
           sodipodi:role="line"
           y="285.05298"
           x="507.70905 522.85602 532.0495">N-M</tspan></text><text
         id="text923"
         style="font-variant:normal;font-weight:bold;font-size:30px;font-family:Verdana;-inkscape-font-specification:Verdana-Bold;writing-mode:lr-tb;fill:#000000;fill-opacity:1;fill-rule:nonzero;stroke:none"
         transform="translate(155.77514,25.62421)"><tspan
           id="tspan921"
           y="0"
           x="0">x</tspan></text><text
         style="font-variant:normal;font-weight:normal;font-size:15.0302px;font-family:Verdana;-inkscape-font-specification:Verdana;writing-mode:lr-tb;fill:#000000;fill-opacity:1;fill-rule:nonzero;stroke:none;stroke-width:0.607271"
         id="text895-1"
         transform="rotate(-90)"
         x="-652.67346"
         y="485.77567"><tspan
           y="485.77567"
           x="-652.67346"
           style="stroke-width:0.607271"
           sodipodi:role="line"
           id="tspan887-1" /><tspan
           y="504.56342"
           x="-652.67346"
           style="stroke-width:0.607271"
           sodipodi:role="line"
           id="tspan889-4" /><tspan
           y="523.35114"
           x="-652.67346"
           style="stroke-width:0.607271"
           sodipodi:role="line"
           id="tspan891-9" /><tspan
           style="stroke-width:0.607271"
           x="-257.92795 -249.57124 -240.55321 -234.63138 -225.68849 -216.18956 -210.26768 -204.99211 -194.72661 -185.3629 -176.34491 -168.52925"
           y="525.26947"
           sodipodi:role="line"
           id="tspan893-4">Latent Space</tspan></text><text
         style="font-variant:normal;font-weight:normal;font-size:13.8272px;font-family:Verdana;-inkscape-font-specification:Verdana;writing-mode:lr-tb;fill:#000000;fill-opacity:1;fill-rule:nonzero;stroke:none;stroke-width:0.558673"
         id="text895-4"
         transform="rotate(-90)"
         x="-502.85373"
         y="565.18475"><tspan
           y="565.18475"
           x="-502.85373"
           style="stroke-width:0.558673"
           sodipodi:role="line"
           id="tspan887-12" /><tspan
           style="stroke-width:0.558673"
           x="-140.8149 -129.17242 -120.87608 -112.26171 -103.52292 -95.295746 -89.847832 -86.059196 -78.868996 -74.015678 -66.078835 -62.290176 -53.551392"
           y="524.64905"
           sodipodi:role="line"
           id="tspan889-1">Magnetic Flux</tspan><tspan
           style="stroke-width:0.558673"
           x="-119.14575 -108.49879 -100.27158 -91.532822 -84.342682 -80.554008 -75.17524"
           y="541.9328"
           sodipodi:role="line"
           id="tspan891-3">Density</tspan><tspan
           y="559.2168"
           x="-502.85373"
           style="stroke-width:0.558673"
           sodipodi:role="line"
           id="tspan893-42" /></text><text
         style="font-variant:normal;font-weight:bold;font-size:39.75px;font-family:Verdana;-inkscape-font-specification:Verdana-Bold;writing-mode:lr-tb;fill:#000000;fill-opacity:1;fill-rule:nonzero;stroke:none;stroke-width:0.999998"
         id="text877-0"
         x="38.600998"
         y="282.08902"><tspan
           style="stroke-width:0.999998"
           x="466.66138"
           y="217.58902"
           id="tspan873-0">z</tspan></text><text
         style="font-variant:normal;font-weight:bold;font-size:39.75px;font-family:Verdana;-inkscape-font-specification:Verdana-Bold;writing-mode:lr-tb;fill:#000000;fill-opacity:1;fill-rule:nonzero;stroke:none;stroke-width:0.999998"
         id="text877-3"
         x="-251.90628"
         y="222.58051"><tspan
           style="stroke-width:0.999998"
           x="176.15411"
           y="158.08051"
           id="tspan873-2">x</tspan></text></g></g></svg>
